<?xml version="1.0" encoding="UTF-8" standalone="no"?>
<!DOCTYPE svg PUBLIC "-//W3C//DTD SVG 1.1//EN"
 "http://www.w3.org/Graphics/SVG/1.1/DTD/svg11.dtd">
<!-- Generated by graphviz version 2.47.3 (20210619.1520)
 -->
<!-- Title: dependencies Pages: 1 -->
<svg width="1056pt" height="247pt"
 viewBox="0.00 0.00 1056.00 246.80" xmlns="http://www.w3.org/2000/svg" xmlns:xlink="http://www.w3.org/1999/xlink">
<g id="graph0" class="graph" transform="scale(1 1) rotate(0) translate(4 242.8)">
<title>dependencies</title>
<polygon fill="white" stroke="transparent" points="-4,4 -4,-242.8 1052,-242.8 1052,4 -4,4"/>
<text text-anchor="middle" x="524" y="-8.2" font-family="sans-serif" font-size="14.00">dependencies</text>
<g id="clust1" class="cluster">
<title>cluster_LitotableModule</title>
<polygon fill="none" stroke="black" stroke-dasharray="1,5" points="8,-32.8 8,-230.8 1040,-230.8 1040,-32.8 8,-32.8"/>
</g>
<g id="clust2" class="cluster">
<title>cluster_LitotableModule_declarations</title>
<polygon fill="none" stroke="black" points="16,-40.8 16,-92.8 1032,-92.8 1032,-40.8 16,-40.8"/>
</g>
<g id="clust11" class="cluster">
<title>cluster_LitotableModule_exports</title>
<polygon fill="none" stroke="black" points="443,-170.8 443,-222.8 595,-222.8 595,-170.8 443,-170.8"/>
</g>
<!-- ConstrainCreationForm -->
<g id="node1" class="node">
<title>ConstrainCreationForm</title>
<polygon fill="#ffffb3" stroke="black" points="1024.48,-84.8 875.52,-84.8 875.52,-48.8 1024.48,-48.8 1024.48,-84.8"/>
<text text-anchor="middle" x="950" y="-62.6" font-family="Times,serif" font-size="14.00">ConstrainCreationForm</text>
</g>
<!-- LitotableModule -->
<g id="node8" class="node">
<title>LitotableModule</title>
<polygon fill="#8dd3c7" stroke="black" points="574.09,-149.8 571.09,-153.8 550.09,-153.8 547.09,-149.8 463.91,-149.8 463.91,-113.8 574.09,-113.8 574.09,-149.8"/>
<text text-anchor="middle" x="519" y="-127.6" font-family="Times,serif" font-size="14.00">LitotableModule</text>
</g>
<!-- ConstrainCreationForm&#45;&gt;LitotableModule -->
<g id="edge1" class="edge">
<title>ConstrainCreationForm&#45;&gt;LitotableModule</title>
<path fill="none" stroke="black" d="M950,-85.09C950,-107.01 950,-140.8 950,-140.8 950,-140.8 584.46,-140.8 584.46,-140.8"/>
<polygon fill="black" stroke="black" points="584.46,-137.3 574.46,-140.8 584.46,-144.3 584.46,-137.3"/>
</g>
<!-- ConstrainCreatorComponent -->
<g id="node2" class="node">
<title>ConstrainCreatorComponent</title>
<polygon fill="#ffffb3" stroke="black" points="857.75,-84.8 680.25,-84.8 680.25,-48.8 857.75,-48.8 857.75,-84.8"/>
<text text-anchor="middle" x="769" y="-62.6" font-family="Times,serif" font-size="14.00">ConstrainCreatorComponent</text>
</g>
<!-- ConstrainCreatorComponent&#45;&gt;LitotableModule -->
<g id="edge2" class="edge">
<title>ConstrainCreatorComponent&#45;&gt;LitotableModule</title>
<path fill="none" stroke="black" d="M769,-84.91C769,-104.14 769,-131.8 769,-131.8 769,-131.8 584.17,-131.8 584.17,-131.8"/>
<polygon fill="black" stroke="black" points="584.17,-128.3 574.17,-131.8 584.17,-135.3 584.17,-128.3"/>
</g>
<!-- CuitPipe -->
<g id="node3" class="node">
<title>CuitPipe</title>
<polygon fill="#ffffb3" stroke="black" points="662.51,-84.8 597.49,-84.8 597.49,-48.8 662.51,-48.8 662.51,-84.8"/>
<text text-anchor="middle" x="630" y="-62.6" font-family="Times,serif" font-size="14.00">CuitPipe</text>
</g>
<!-- CuitPipe&#45;&gt;LitotableModule -->
<g id="edge3" class="edge">
<title>CuitPipe&#45;&gt;LitotableModule</title>
<path fill="none" stroke="black" d="M630,-84.83C630,-101.2 630,-122.8 630,-122.8 630,-122.8 584.17,-122.8 584.17,-122.8"/>
<polygon fill="black" stroke="black" points="584.17,-119.3 574.17,-122.8 584.17,-126.3 584.17,-119.3"/>
</g>
<!-- DialogColorPicker -->
<g id="node4" class="node">
<title>DialogColorPicker</title>
<polygon fill="#ffffb3" stroke="black" points="579.75,-84.8 458.25,-84.8 458.25,-48.8 579.75,-48.8 579.75,-84.8"/>
<text text-anchor="middle" x="519" y="-62.6" font-family="Times,serif" font-size="14.00">DialogColorPicker</text>
</g>
<!-- DialogColorPicker&#45;&gt;LitotableModule -->
<g id="edge4" class="edge">
<title>DialogColorPicker&#45;&gt;LitotableModule</title>
<path fill="none" stroke="black" d="M519,-84.91C519,-84.91 519,-103.79 519,-103.79"/>
<polygon fill="black" stroke="black" points="515.5,-103.79 519,-113.79 522.5,-103.79 515.5,-103.79"/>
</g>
<!-- LitoColorPickerComponent -->
<g id="node5" class="node">
<title>LitoColorPickerComponent</title>
<polygon fill="#ffffb3" stroke="black" points="440.32,-84.8 267.68,-84.8 267.68,-48.8 440.32,-48.8 440.32,-84.8"/>
<text text-anchor="middle" x="354" y="-62.6" font-family="Times,serif" font-size="14.00">LitoColorPickerComponent</text>
</g>
<!-- LitoColorPickerComponent&#45;&gt;LitotableModule -->
<g id="edge5" class="edge">
<title>LitoColorPickerComponent&#45;&gt;LitotableModule</title>
<path fill="none" stroke="black" d="M354,-84.83C354,-101.2 354,-122.8 354,-122.8 354,-122.8 453.6,-122.8 453.6,-122.8"/>
<polygon fill="black" stroke="black" points="453.6,-126.3 463.6,-122.8 453.6,-119.3 453.6,-126.3"/>
</g>
<!-- LitotableComponent -->
<g id="node6" class="node">
<title>LitotableComponent</title>
<polygon fill="#ffffb3" stroke="black" points="249.88,-84.8 118.12,-84.8 118.12,-48.8 249.88,-48.8 249.88,-84.8"/>
<text text-anchor="middle" x="184" y="-62.6" font-family="Times,serif" font-size="14.00">LitotableComponent</text>
</g>
<!-- LitotableComponent&#45;&gt;LitotableModule -->
<g id="edge6" class="edge">
<title>LitotableComponent&#45;&gt;LitotableModule</title>
<path fill="none" stroke="black" d="M184,-84.91C184,-104.14 184,-131.8 184,-131.8 184,-131.8 453.68,-131.8 453.68,-131.8"/>
<polygon fill="black" stroke="black" points="453.68,-135.3 463.68,-131.8 453.68,-128.3 453.68,-135.3"/>
</g>
<!-- PhonePipe -->
<g id="node7" class="node">
<title>PhonePipe</title>
<polygon fill="#ffffb3" stroke="black" points="99.89,-84.8 24.11,-84.8 24.11,-48.8 99.89,-48.8 99.89,-84.8"/>
<text text-anchor="middle" x="62" y="-62.6" font-family="Times,serif" font-size="14.00">PhonePipe</text>
</g>
<!-- PhonePipe&#45;&gt;LitotableModule -->
<g id="edge7" class="edge">
<title>PhonePipe&#45;&gt;LitotableModule</title>
<path fill="none" stroke="black" d="M62,-85.09C62,-107.01 62,-140.8 62,-140.8 62,-140.8 453.88,-140.8 453.88,-140.8"/>
<polygon fill="black" stroke="black" points="453.88,-144.3 463.88,-140.8 453.88,-137.3 453.88,-144.3"/>
</g>
<!-- LitotableComponent  -->
<g id="node9" class="node">
<title>LitotableComponent </title>
<polygon fill="#fb8072" stroke="black" points="586.88,-214.8 451.12,-214.8 451.12,-178.8 586.88,-178.8 586.88,-214.8"/>
<text text-anchor="middle" x="519" y="-192.6" font-family="Times,serif" font-size="14.00">LitotableComponent </text>
</g>
<!-- LitotableModule&#45;&gt;LitotableComponent  -->
<g id="edge8" class="edge">
<title>LitotableModule&#45;&gt;LitotableComponent </title>
<path fill="none" stroke="black" stroke-dasharray="5,2" d="M519,-149.91C519,-149.91 519,-168.79 519,-168.79"/>
<polygon fill="black" stroke="black" points="515.5,-168.79 519,-178.79 522.5,-168.79 515.5,-168.79"/>
</g>
</g>
</svg>
